<svg width="24" height="24" viewBox="0 0 24 24" fill="none" xmlns="http://www.w3.org/2000/svg">
<path d="M1.09675 3H22.903" stroke="black" stroke-width="2" stroke-linecap="round"/>
<line x1="10.8193" y1="1" x2="13.1805" y2="1" stroke="black" stroke-width="2" stroke-linecap="round"/>
<line x1="10" y1="13" x2="14" y2="13" stroke="black" stroke-width="2" stroke-linecap="round"/>
<path d="M6.54859 23.0001C-0.182129 23.1376 1.09703 8.00006 1.09703 8.00006H22.9033C22.9033 8.00006 24.1806 23.2007 17.4517 23.0001C13.8614 22.893 10.5722 22.9179 6.54859 23.0001Z" stroke="black" stroke-width="2"/>
<path d="M17.4132 8C18.0331 11.1013 18.3429 12.8296 17.4132 15.5C16.4835 18.1704 17.4132 22.0625 17.4132 23" stroke="black" stroke-width="2"/>
<path d="M6.5868 8C5.96688 11.1013 5.65711 12.8296 6.5868 15.5C7.51649 18.1704 6.5868 22.0625 6.5868 23" stroke="black" stroke-width="2"/>
</svg>
